<svg width="509" height="462" viewBox="0 0 509 462" fill="none" xmlns="http://www.w3.org/2000/svg">
<path d="M153.201 57C134.801 93 163.2 123.5 179.701 129.5C228.201 147.136 244.701 175.167 237.701 208.5C233.301 242.5 172.034 264.333 161.201 267.5C124.801 279.9 105.534 309.5 115.701 328C127.701 353.2 149.801 366 172.201 366C194.601 366 216.868 396 209.701 418.5M376.201 62C336.201 98.8 366.534 144 383.201 162C416.801 198.4 380.201 247.5 357.701 267.5C330.101 296.7 351.868 335.333 366.201 351C391.401 382.6 354.701 409.167 333.201 418.5M351.701 157.5C318.101 188.7 331.034 218.833 341.701 230C361.301 253.346 366.201 293.061 366.201 307" stroke="#26272C" stroke-width="6" stroke-linecap="round" stroke-linejoin="round"/>
<path d="M155.701 143C211.301 175 177.367 222.5 155.701 241C119.301 271 161.534 300.667 183.201 309.5" stroke="#26272C" stroke-width="6" stroke-linecap="round" stroke-linejoin="round"/>
<path d="M376.627 56.6795L376.265 50.1593C376.225 49.4425 376.573 48.7593 377.176 48.3692L381.614 45.4971C382.945 44.6361 384.701 45.5913 384.701 47.1763V60.2559C384.701 61.0176 384.268 61.7132 383.585 62.0499L316.654 95.0302C316.058 95.3239 315.355 95.3024 314.778 94.9727L311.969 93.3673C310.577 92.5721 310.639 90.545 312.077 89.8367L375.514 58.5845C376.234 58.2301 376.672 57.4802 376.627 56.6795Z" fill="black"/>
<path d="M382.701 132.833V144.85C382.701 145.562 382.322 146.22 381.707 146.578L356.135 161.457C355.552 161.796 354.837 161.818 354.234 161.517L268.093 118.446C267.531 118.165 266.87 118.164 266.308 118.444L179.701 161.5L150.737 145.57C150.098 145.218 149.701 144.547 149.701 143.817V129.737C149.701 128.14 151.481 127.187 152.81 128.073L156.31 130.406C156.867 130.777 157.201 131.402 157.201 132.07V140.726C157.201 141.503 157.651 142.21 158.355 142.539L179.701 152.5V145.5C179.701 144.395 180.596 143.5 181.701 143.5H182.701C183.805 143.5 184.701 144.395 184.701 145.5V150.282C184.701 151.765 186.257 152.732 187.586 152.076L262.586 115.05C263.269 114.713 263.701 114.018 263.701 113.257V104.5C263.701 103.395 264.596 102.5 265.701 102.5H268.201C269.305 102.5 270.201 103.395 270.201 104.5V113.26C270.201 114.02 270.631 114.714 271.311 115.052L344.811 151.564C346.14 152.225 347.701 151.258 347.701 149.773V145.562C347.701 143.902 349.605 142.965 350.92 143.976L353.42 145.9C353.912 146.278 354.201 146.864 354.201 147.485V150.167C354.201 151.677 355.81 152.642 357.142 151.931L375.642 142.065C376.294 141.717 376.701 141.039 376.701 140.3V132C376.701 130.573 378.153 129.605 379.47 130.154L381.47 130.987C382.215 131.298 382.701 132.026 382.701 132.833Z" fill="black"/>
<path d="M149.201 58.7761V46.9099C149.201 45.6576 150.338 44.7133 151.569 44.9441L155.569 45.6941C156.515 45.8715 157.201 46.6974 157.201 47.6599V56.7514C157.201 57.5154 157.636 58.2128 158.323 58.5483L220.306 88.8411C221.749 89.5461 221.815 91.5779 220.42 92.3745L217.64 93.9633C217.054 94.2982 216.339 94.3149 215.737 94.0077L150.291 60.557C149.622 60.2151 149.201 59.5273 149.201 58.7761Z" fill="black"/>
<path d="M154.201 56.2679V50.7738C154.201 49.278 155.783 48.3115 157.114 48.9943L228.32 85.5223C229.643 86.201 229.789 88.0352 228.59 88.9146L224.689 91.7755C224.082 92.2201 223.278 92.2871 222.606 91.9489L155.301 58.0542C154.626 57.7144 154.201 57.0234 154.201 56.2679Z" fill="#00D7A0"/>
<path d="M179.595 146.447L158.595 135.947C157.265 135.282 155.701 136.249 155.701 137.736V140.742C155.701 141.511 156.142 142.212 156.835 142.545L177.835 152.625C179.163 153.262 180.701 152.294 180.701 150.822V148.236C180.701 147.479 180.273 146.786 179.595 146.447Z" fill="#00D7A0"/>
<path d="M185.701 150.255V147.733C185.701 146.977 186.127 146.286 186.802 145.946L263.201 107.5V114.5L188.6 152.041C187.27 152.71 185.701 151.744 185.701 150.255Z" fill="#00D7A0"/>
<path d="M271.201 114.5L270.701 106.5L345.595 143.947C346.273 144.286 346.701 144.979 346.701 145.736V150.216C346.701 151.714 345.114 152.68 343.783 151.993L271.201 114.5Z" fill="#00D7A0"/>
<path d="M354.701 150.198V147.711C354.701 146.967 355.114 146.284 355.774 145.939L376.701 135V140.789C376.701 141.533 376.287 142.216 375.627 142.561L357.627 151.97C356.296 152.666 354.701 151.7 354.701 150.198Z" fill="#00D7A0"/>
<path d="M308.717 89.7849L306.853 88.429C305.642 87.5484 305.793 85.6985 307.13 85.0252L376.701 50V55.7639C376.701 56.5215 376.273 57.214 375.595 57.5528L310.788 89.9563C310.12 90.2903 309.322 90.2242 308.717 89.7849Z" fill="#00D7A0"/>
<path d="M154.201 56.2679V50.7738C154.201 49.278 155.783 48.3115 157.114 48.9943L228.32 85.5223C229.643 86.201 229.789 88.0352 228.59 88.9146L224.689 91.7755C224.082 92.2201 223.278 92.2871 222.606 91.9489L155.301 58.0542C154.626 57.7144 154.201 57.0234 154.201 56.2679Z" stroke="black" stroke-width="2" stroke-linejoin="round"/>
<path d="M179.595 146.447L158.595 135.947C157.265 135.282 155.701 136.249 155.701 137.736V140.742C155.701 141.511 156.142 142.212 156.835 142.545L177.835 152.625C179.163 153.262 180.701 152.294 180.701 150.822V148.236C180.701 147.479 180.273 146.786 179.595 146.447Z" stroke="black" stroke-width="2" stroke-linejoin="round"/>
<path d="M185.701 150.255V147.733C185.701 146.977 186.127 146.286 186.802 145.946L263.201 107.5V114.5L188.6 152.041C187.27 152.71 185.701 151.744 185.701 150.255Z" stroke="black" stroke-width="2" stroke-linejoin="round"/>
<path d="M271.201 114.5L270.701 106.5L345.595 143.947C346.273 144.286 346.701 144.979 346.701 145.736V150.216C346.701 151.714 345.114 152.68 343.783 151.993L271.201 114.5Z" stroke="black" stroke-width="2" stroke-linejoin="round"/>
<path d="M354.701 150.198V147.711C354.701 146.967 355.114 146.284 355.774 145.939L376.701 135V140.789C376.701 141.533 376.287 142.216 375.627 142.561L357.627 151.97C356.296 152.666 354.701 151.7 354.701 150.198Z" stroke="black" stroke-width="2" stroke-linejoin="round"/>
<path d="M308.717 89.7849L306.853 88.429C305.642 87.5484 305.793 85.6985 307.13 85.0252L376.701 50V55.7639C376.701 56.5215 376.273 57.214 375.595 57.5528L310.788 89.9563C310.12 90.2903 309.322 90.2242 308.717 89.7849Z" stroke="black" stroke-width="2" stroke-linejoin="round"/>
<path d="M178.791 27.0487L151.303 43.6289C149.955 44.4418 150.031 46.4208 151.437 47.1281L226.243 84.7605C227.693 85.4902 227.716 87.553 226.281 88.3139L151.083 128.206C149.656 128.963 149.669 131.012 151.106 131.751L181.796 147.535C182.365 147.827 183.038 147.83 183.609 147.543L267.291 105.457C267.863 105.17 268.537 105.173 269.106 105.466L350.826 147.549C351.377 147.834 352.03 147.845 352.592 147.582L381.205 134.142C382.673 133.452 382.753 131.394 381.342 130.593L307.029 88.3901C305.624 87.5924 305.696 85.5447 307.153 84.8471L382.872 48.5936C384.305 47.9079 384.405 45.9069 383.049 45.0813L353.585 27.1471C352.412 26.4331 350.955 26.3707 349.725 26.9819L269.06 67.0727C268.517 67.3428 267.88 67.3515 267.33 67.0964L180.665 26.9466C180.062 26.6673 179.36 26.7056 178.791 27.0487Z" fill="black"/>
<path d="M181.247 34.5829L167.298 43.1075C165.953 43.9289 166.042 45.9096 167.455 46.6072L242.706 83.7738C244.166 84.4952 244.198 86.5666 242.76 87.3323L165.341 128.561C163.867 129.347 163.948 131.486 165.477 132.158L181.342 139.123C181.886 139.362 182.508 139.346 183.04 139.08L266.298 97.4511C266.866 97.1674 267.534 97.1697 268.1 97.4574L351.755 140.019C352.346 140.32 353.049 140.308 353.629 139.987L368.485 131.777C369.872 131.011 369.859 129.013 368.463 128.264L292.124 87.3353C290.691 86.5669 290.725 84.4999 292.183 83.7796L369.181 45.739C370.646 45.0151 370.672 42.9347 369.225 42.1751L353.613 33.9791C353.041 33.6785 352.358 33.6733 351.781 33.9652L267.606 76.542C267.037 76.8299 266.365 76.8291 265.796 76.5398L183.197 34.5069C182.578 34.1919 181.84 34.2206 181.247 34.5829Z" fill="#00D6A1"/>
<path d="M206.988 422.407C218.192 385.714 209.909 330.414 174.581 308.618C172.828 307.536 173.731 303.921 175.787 304.042C176.009 304.055 176.235 304.09 176.451 304.144C184.908 306.253 185.675 306.288 190.003 308.978C194.052 312.267 197.966 316.84 201.56 322.327C214.253 341.705 222.949 372.479 219.479 398.31C219.074 401.33 218.502 404.283 217.75 407.142C217.24 409.083 221.223 411.9 222.88 410.769C244.78 395.825 286.009 385.233 319.421 409.356C321.26 410.684 325.285 407.929 324.784 405.716C319.061 380.474 325.632 340.703 347.896 318.386C349.79 316.487 351.799 314.714 353.923 313.088C355.661 311.756 354.55 308.029 352.361 307.962C350.86 307.916 349.372 307.833 347.896 307.714C311.863 304.812 280.197 284.276 269.372 257.562C268.611 255.683 265.494 255.654 264.734 257.533C256.229 278.574 238.489 293.683 213.094 302.334C212.591 302.505 212.038 302.467 211.564 302.23L206.338 299.617C204.753 298.824 204.899 296.49 206.551 295.848C227.828 287.581 253.013 270.774 265.026 237.391C265.699 235.52 268.568 235.494 269.275 237.352C283.653 275.138 320.113 300.886 371.064 303.166C373.106 303.257 373.921 306.172 372.257 307.359C335.541 333.547 324.807 387.908 336.161 422.931C336.832 424.998 333.898 427.195 332.13 425.932C292.615 397.708 243.59 402.453 212.288 426.113C210.439 427.511 206.311 424.624 206.988 422.407Z" fill="black"/>
<path d="M352.952 316.056L318.865 328.89C318.683 328.959 318.511 329.054 318.357 329.173C303.402 340.77 300.408 362.75 302.44 373.092C302.49 373.347 302.592 373.579 302.738 373.793L310.317 384.909C312.025 387.414 311.25 390.841 308.632 392.369C306.382 393.681 303.509 393.137 301.895 391.093L293.982 381.07C293.829 380.875 293.647 380.713 293.429 380.593C283.456 375.116 257.917 378.232 245.553 380.627C245.062 380.722 244.635 381 244.339 381.404L223.052 410.534C222.938 410.69 222.774 410.841 222.616 410.951C221.002 412.062 217.169 409.316 217.676 407.423C218.42 404.642 218.993 401.772 219.407 398.836C219.455 398.492 219.59 398.165 219.801 397.889L236.256 376.325C236.58 375.9 236.724 375.376 236.641 374.849C235.01 364.491 228.317 341.588 222.795 328.112C222.767 328.046 222.743 327.979 222.721 327.913L200.962 321.596C197.954 320.861 194.764 319.897 191.529 318.791C183.366 315.999 185.519 310.428 193.855 312.654L267.071 332.205C268.279 332.527 269.547 332.562 270.771 332.306L297.981 326.622C299.734 326.256 301.483 327.261 302.049 328.959C302.697 330.902 301.559 332.986 299.575 333.493L271.023 340.783C269.639 341.136 268.185 341.112 266.814 340.714L231.89 330.575C236.079 338.402 241.121 349.882 243.64 357.692C244.159 359.302 246.353 359.748 247.381 358.403L251.681 352.78C253.186 350.812 255.902 350.235 258.077 351.421C260.452 352.717 261.375 355.66 260.165 358.079L256.475 365.461C255.81 366.79 256.777 368.355 258.263 368.355H279.731C281.174 368.355 282.142 366.874 281.563 365.553L274.391 349.181C273.484 347.111 274.555 344.709 276.701 344C279.067 343.409 281.538 344.462 282.749 346.578L289.242 357.92C290.204 359.599 292.931 359.094 293.388 357.213C295.607 348.079 300.132 338.388 302.517 334.016L306.17 328.993L297.403 322.327L273.293 304.792V322.175C273.293 324.81 271.287 327.013 268.663 327.26C268.584 327.267 268.504 327.267 268.424 327.26C265.8 327.013 263.795 324.81 263.795 322.175V304.792L253.571 312.325C251.495 313.855 248.598 313.56 246.874 311.643C244.952 309.508 245.215 306.198 247.45 304.393L261.59 292.972C262.06 292.592 262.333 292.02 262.333 291.416V255.5C262.333 253.291 264.124 251.5 266.333 251.5H269.293C271.502 251.5 273.293 253.291 273.293 255.5V291.285C273.293 291.963 273.635 292.594 274.204 292.963L314.938 319.404L350.153 308.043C352.894 307.159 355.701 309.203 355.701 312.083C355.701 313.85 354.606 315.433 352.952 316.056Z" fill="black"/>
</svg>
